<svg width="1000" height="512" viewBox="0 0 1000 512" fill="none" xmlns="http://www.w3.org/2000/svg">
<path d="M246.342 232.091H206.286C206.001 228.777 205.244 225.77 204.013 223.071C202.829 220.372 201.172 218.052 199.041 216.111C196.958 214.122 194.425 212.607 191.442 211.565C188.459 210.476 185.073 209.932 181.286 209.932C174.657 209.932 169.046 211.542 164.453 214.761C159.908 217.981 156.451 222.598 154.084 228.611C151.764 234.624 150.604 241.845 150.604 250.273C150.604 259.174 151.787 266.632 154.155 272.645C156.57 278.611 160.05 283.109 164.595 286.139C169.141 289.122 174.609 290.614 181.001 290.614C184.647 290.614 187.914 290.164 190.803 289.264C193.691 288.317 196.2 286.968 198.331 285.216C200.462 283.464 202.19 281.357 203.516 278.895C204.889 276.385 205.812 273.568 206.286 270.443L246.342 270.727C245.869 276.883 244.141 283.156 241.158 289.548C238.175 295.893 233.937 301.764 228.445 307.162C223 312.512 216.252 316.821 208.203 320.088C200.154 323.355 190.803 324.989 180.149 324.989C166.797 324.989 154.818 322.124 144.212 316.395C133.653 310.666 125.296 302.238 119.141 291.111C113.033 279.984 109.979 266.371 109.979 250.273C109.979 234.08 113.104 220.443 119.354 209.364C125.604 198.237 134.032 189.832 144.638 184.151C155.244 178.421 167.081 175.557 180.149 175.557C189.335 175.557 197.786 176.812 205.504 179.321C213.222 181.83 219.993 185.5 225.817 190.33C231.641 195.112 236.328 201.007 239.879 208.014C243.43 215.022 245.585 223.047 246.342 232.091ZM274.258 177.545H323.406L357.212 259.932H358.917L392.724 177.545H441.871V323H403.235V238.909H402.099L369.712 321.864H346.417L314.031 238.341H312.894V323H274.258V177.545ZM526.552 323H470.586V177.545H525.984C540.946 177.545 553.872 180.457 564.762 186.281C575.7 192.058 584.128 200.391 590.046 211.281C596.012 222.124 598.995 235.121 598.995 250.273C598.995 265.424 596.036 278.445 590.117 289.335C584.199 300.178 575.818 308.511 564.975 314.335C554.132 320.112 541.325 323 526.552 323ZM510.075 289.477H525.131C532.328 289.477 538.46 288.317 543.526 285.997C548.64 283.677 552.522 279.676 555.174 273.994C557.873 268.312 559.222 260.405 559.222 250.273C559.222 240.14 557.849 232.233 555.103 226.551C552.404 220.869 548.427 216.868 543.171 214.548C537.963 212.228 531.571 211.068 523.995 211.068H510.075V289.477ZM748.984 170.727L702.109 344.875H668.871L715.746 170.727H748.984ZM882.315 280.955L776.634 323.284V287.489L843.963 264.193L842.827 265.898V261.92L843.963 263.625L776.634 240.33V204.534L882.315 246.864V280.955Z" fill="white"/>
</svg>
